<svg id="Capa_1" enable-background="new 0 0 512 512" height="512" viewBox="0 0 512 512" width="512" xmlns="http://www.w3.org/2000/svg"><g><g><g><path d="m471.253 395.132c0 21.094-17.097 38.192-38.192 38.192h-354.129c-10.547 0-20.09-4.274-26.999-11.183-6.909-6.919-11.183-16.462-11.183-27.009 0-21.084 17.097-38.192 38.181-38.192h11.203v-133.845h331.732v133.845h11.193c10.547 0 20.09 4.274 27.009 11.193 6.911 6.909 11.185 16.462 11.185 26.999z" fill="#f4dd45"/><path d="m288.751 433.324h-209.808c-10.547 0-20.09-4.274-27.009-11.183-6.909-6.919-11.183-16.462-11.183-27.009 0-21.084 17.097-38.192 38.192-38.192h11.193v-133.845h90.211v70.479z" fill="#eab14d"/><path d="m379.117 504.5h-246.227l6.007-29.254c4.941-24.088 23.708-42.394 46.996-47.324 4.09-.871 8.323-1.322 12.649-1.322h114.923c4.315 0 8.548.451 12.638 1.322 23.288 4.93 42.066 23.237 47.007 47.324z" fill="#e7ecf1"/><path d="m221.866 426.6c-2.563 0-5.074.451-7.503 1.322-13.838 4.93-24.979 23.237-27.921 47.324l-3.567 29.254h-49.989l6.007-29.254c4.94-24.088 23.708-42.394 46.996-47.324 4.09-.871 8.323-1.322 12.649-1.322z" fill="#c6d0da"/><path d="m290.064 369.712v56.888c0 18.809-15.252 34.061-34.061 34.061-18.819 0-34.071-15.252-34.071-34.061v-56.888z" fill="#ffcbbe"/><g fill="#eaac9d"><path d="m267.127 458.803c-3.485 1.199-7.226 1.855-11.121 1.855-18.819 0-34.071-15.252-34.071-34.061v-56.887h22.243v56.888c0 14.924 9.594 27.603 22.949 32.205z"/><path d="m113.694 322.343c-24.561 0-44.471-19.91-44.471-44.471 0-3.38.377-6.672 1.092-9.837 5.769-25.55 43.379-21.36 43.379 4.834h284.613c0-26.193 37.61-30.384 43.379-4.834.714 3.164 1.092 6.456 1.092 9.837 0 24.56-19.91 44.471-44.471 44.471"/><path d="m221.932 369.712h68.132v52.408h-68.132z"/></g><path d="m398.303 223.095v77.275c0 57.277-46.433 103.72-103.72 103.72h-77.173c-57.277 0-103.72-46.433-103.72-103.72v-77.275z" fill="#ffcbbe"/><path d="m181.833 223.095v77.275c0 57.277 46.433 103.72 103.72 103.72h-68.142c-57.277 0-103.72-46.433-103.72-103.72v-77.275z" fill="#eaac9d"/><g fill="#e490b7"><ellipse cx="339.826" cy="307.741" rx="23.295" ry="14.164"/><ellipse cx="172.175" cy="307.741" rx="23.295" ry="14.164"/></g><g><path d="m347.653 138.347-125.993.045-55.209.017c-7.198-29.822-24.74-97.158 32.976-122.618 44.416-19.596 89.966 1.696 89.966 1.696s100.118-19.455 58.26 120.86z" fill="#b16e3d"/><path d="m214.956 119.965 6.704 18.428-55.209.017c-7.198-29.822-24.74-97.158 32.976-122.618 44.416-19.596 89.966 1.696 89.966 1.696-83.745-.001-88.838 72.427-74.437 102.477z" fill="#985e33"/><path d="m177.253 177.861c-13.59 0-24.608-11.017-24.608-24.608 0-1.87.209-3.692.604-5.443 3.192-14.138 24.004-11.819 24.004 2.675h157.489c0-14.494 20.811-16.813 24.004-2.675.395 1.751.604 3.573.604 5.443 0 13.59-11.017 24.608-24.608 24.608" fill="#eaac9d"/><path d="m334.738 125.563v40.139c0 31.694-25.693 57.393-57.393 57.393h-42.703c-31.694 0-57.393-25.699-57.393-57.393v-39.011c12.092-1.651 24.956-3.845 37.706-6.727 30.911-6.976 61.193-18.008 78.395-35.21.001 0 10.914 36.282 41.388 40.809z" fill="#ffcbbe"/><path d="m272.349 223.095h-37.706c-31.694 0-57.393-25.699-57.393-57.393v-39.011c12.092-1.651 24.956-3.845 37.706-6.727v45.737c0 31.695 25.693 57.394 57.393 57.394z" fill="#eaac9d"/><g fill="#e490b7"><ellipse cx="302.381" cy="169.781" rx="12.89" ry="7.838"/><ellipse cx="209.613" cy="169.781" rx="12.89" ry="7.838"/></g></g></g></g><g><path d="m226.093 312.314c-3.816 1.609-5.605 6.007-3.996 9.824 5.763 13.669 19.068 22.501 33.896 22.501s28.134-8.832 33.897-22.502c1.609-3.817-.181-8.215-3.997-9.824-3.815-1.609-8.215.182-9.824 3.997-3.414 8.097-11.293 13.329-20.075 13.329-8.781 0-16.662-5.232-20.076-13.33-1.61-3.815-6.005-5.606-9.825-3.995z"/><path d="m242.144 291.714h27.713c4.142 0 7.499-3.358 7.499-7.499 0-4.142-3.358-7.499-7.499-7.499h-27.713c-4.142 0-7.499 3.358-7.499 7.499 0 4.142 3.357 7.499 7.499 7.499z"/><path d="m183 286.891c7.469 0 13.545-10.052 13.545-22.409s-6.076-22.409-13.545-22.409c-.469 0-.953.042-1.393.123h-15.397c-4.377 0-7.937 3.56-7.937 7.937s3.56 7.937 7.937 7.937h3.809c-.374 2.079-.563 4.234-.563 6.412-.001 12.357 6.075 22.409 13.544 22.409z"/><path d="m354.754 250.133c0-4.377-3.56-7.937-7.937-7.937l-16.379.004c-.484-.084-.967-.127-1.436-.127-7.469 0-13.545 10.052-13.545 22.409s6.076 22.409 13.545 22.409 13.546-10.052 13.546-22.409c0-2.176-.189-4.331-.564-6.412h4.834c4.376 0 7.936-3.56 7.936-7.937z"/><path d="m465.356 362.839c-8.632-8.632-20.106-13.386-32.31-13.386h-3.69v-29.925c12.682-9.485 20.905-24.618 20.905-41.637 0-3.875-.429-7.74-1.276-11.488-2.451-10.857-9.918-18.744-19.632-21.704v-21.581c0-4.142-3.358-7.499-7.499-7.499l-103.076.005c9.512-7.912 16.736-18.484 20.514-30.566 15.551-2.221 27.547-15.621 27.547-31.776 0-2.392-.265-4.779-.788-7.094-1.288-5.704-4.65-10.176-9.186-12.784 13.524-49.193 10.884-84.617-7.897-105.335-19.623-21.646-49.809-19.459-58.586-18.284-10.036-4.159-52.088-19.297-93.979-.815-58.498 25.808-46.88 90.312-39.119 123.388-5.612 2.335-9.857 7.26-11.341 13.83-.523 2.315-.788 4.703-.788 7.095 0 16.155 11.995 29.554 27.544 31.776 3.778 12.082 11.002 22.654 20.514 30.566h-26.534c-4.142 0-7.499 3.358-7.499 7.499s3.358 7.499 7.499 7.499h224.111v69.764c0 53.051-43.16 96.212-96.212 96.212h-77.163c-53.052 0-96.212-43.16-96.212-96.212v-69.764h5.48c.007 0 .013-.001.02-.001l9.978.001h.001c4.141 0 7.499-3.357 7.499-7.498 0-4.142-3.357-7.5-7.498-7.5l-46.531-.005s0 0-.001 0c-1.989 0-3.896.79-5.303 2.196-1.406 1.407-2.197 3.314-2.197 5.303v21.579c-9.716 2.959-17.182 10.847-19.634 21.705-.847 3.748-1.276 7.613-1.276 11.488 0 17.02 8.225 32.155 20.908 41.639v29.923h-3.693c-25.192 0-45.688 20.495-45.688 45.688 0 12.195 4.75 23.668 13.382 32.314 8.638 8.624 20.111 13.374 32.306 13.374h69.696c-8.417 8.971-14.494 20.241-17.095 32.907l-6.007 29.256c-.453 2.207.11 4.502 1.535 6.248 1.424 1.746 3.558 2.76 5.812 2.76h246.209c2.253 0 4.387-1.013 5.812-2.76 1.424-1.746 1.988-4.041 1.535-6.248l-6.007-29.256c-2.601-12.668-8.679-23.939-17.098-32.911h39.702c4.142 0 7.499-3.358 7.499-7.499 0-4.142-3.358-7.499-7.499-7.499h-60.171c-8.983-4.313-18.982-6.722-29.421-6.722h-15.894v-7.548c49.86-1.32 91.64-35.621 104.291-81.835 4.334-.295 8.523-1.12 12.504-2.417v29.647c0 4.142 3.358 7.499 7.499 7.499h11.189c8.198 0 15.906 3.194 21.705 8.992 5.792 5.792 8.983 13.497 8.983 21.695 0 16.921-13.766 30.687-30.687 30.687-4.142 0-7.499 3.358-7.499 7.499 0 4.142 3.358 7.499 7.499 7.499 25.191 0 45.686-20.495 45.686-45.686-.002-12.201-4.752-23.673-13.378-32.298zm-123.198-194.168c.044-.975.075-1.953.075-2.939v-15.217h.001c0-3.754 2.891-4.482 4.134-4.62 1.245-.138 4.225-.065 5.052 3.598.279 1.233.42 2.508.42 3.79.001 6.77-3.963 12.617-9.682 15.388zm-175.97-93.819c2.4-25.39 14.263-42.452 36.269-52.16 40.634-17.926 83.343 1.437 83.757 1.63 1.425.665 3.042.864 4.587.571.3-.056 30.191-5.45 47.121 13.322 14.925 16.55 16.383 48.233 4.311 91.835v-4.457c0-3.716-2.721-6.872-6.397-7.418-25.301-3.758-35.212-35.243-35.304-35.544-.76-2.527-2.792-4.468-5.351-5.112-2.559-.647-5.268.104-7.133 1.97-18.321 18.321-58.027 32.457-111.804 39.805-2.493.341-4.554 1.884-5.645 3.994-3.1-14.057-6.012-31.502-4.411-48.436zm-6.035 78.431c0-1.282.141-2.557.42-3.791.827-3.662 3.809-3.734 5.052-3.597 1.241.138 4.123.864 4.133 4.6v15.237c0 .985.031 1.963.075 2.938-5.718-2.772-9.68-8.618-9.68-15.387zm24.604 12.449v-15.217h.001c0-.008-.001-.015-.001-.022v-17.266c35.454-5.306 79.004-15.7 105.625-35.954 1.538 3.148 3.53 6.753 6.026 10.433 8.309 12.246 18.869 20.407 30.825 23.902v34.123c0 27.508-22.38 49.888-49.888 49.888h-42.7c-27.508.001-49.888-22.379-49.888-49.887zm97.807 260.873c0 14.647-11.916 26.564-26.564 26.564-14.647 0-26.563-11.916-26.563-26.564v-15.007h53.127zm-176.361-195.984v16.431c-2.6-1.396-5.468-2.427-8.554-3.029v-13.403zm-29.464 47.271c0-2.765.305-5.518.908-8.184 2.102-9.313 9.777-11.85 15.706-11.184 5.563.62 12.002 4.32 12.776 12.658-6.188-2.811-12.697-3.057-18.785-.602-3.841 1.55-5.699 5.919-4.15 9.76 1.55 3.841 5.92 5.698 9.76 4.15 5.529-2.232 10.826 2.488 13.249 5.15v10.747c0 4.694.295 9.32.863 13.863-17.224-3.138-30.327-18.242-30.327-36.358zm-19.483 138.958c-5.797-5.806-8.989-13.515-8.989-21.708 0-16.922 13.767-30.689 30.689-30.689h11.192c4.142 0 7.499-3.358 7.499-7.499v-29.647c3.976 1.296 8.161 2.12 12.49 2.415 12.652 46.217 54.436 80.519 104.301 81.836v7.548h-15.894c-10.441 0-20.444 2.41-29.429 6.725h-90.16c-8.192 0-15.902-3.193-21.699-8.981zm308.497 59.903 4.157 20.248h-227.818l4.157-20.248c5.074-24.712 27.067-42.649 52.295-42.649h16.585c3.542 19.348 20.515 34.063 40.872 34.063s37.329-14.715 40.871-34.063h16.585c25.228 0 47.222 17.937 52.296 42.649zm48.602-232.73c-3.091.602-5.963 1.636-8.567 3.034v-16.438h8.567zm-8.567 56.365v-10.736c2.419-2.661 7.724-7.398 13.259-5.161 3.841 1.548 8.211-.309 9.76-4.15s-.309-8.211-4.15-9.76c-6.089-2.456-12.597-2.21-18.785.601.774-8.338 7.213-12.038 12.776-12.658 5.929-.661 13.603 1.871 15.707 11.184.602 2.666.907 5.419.907 8.184 0 18.12-13.108 33.226-30.338 36.36.569-4.543.864-9.17.864-13.864z"/><path d="m215.602 158.249c4.126 0 7.482-5.556 7.482-12.386s-3.357-12.387-7.482-12.387c-4.126 0-7.482 5.557-7.482 12.387s3.356 12.386 7.482 12.386z"/><path d="m296.392 158.249c4.126 0 7.482-5.556 7.482-12.386s-3.356-12.387-7.482-12.387-7.482 5.557-7.482 12.387 3.356 12.386 7.482 12.386z"/><path d="m255.999 188.603c8.951 0 16.982-5.332 20.461-13.583 1.287-3.053-.145-6.572-3.198-7.859s-6.572.145-7.859 3.198c-1.599 3.794-5.291 6.245-9.404 6.245s-7.805-2.451-9.404-6.245c-1.287-3.054-4.806-4.484-7.859-3.197s-4.484 4.806-3.197 7.859c3.478 8.251 11.509 13.582 20.46 13.582z"/><path d="m248.33 162.782h15.335c3.313 0 5.999-2.686 5.999-5.999s-2.686-5.999-5.999-5.999h-15.335c-3.313 0-5.999 2.686-5.999 5.999s2.686 5.999 5.999 5.999z"/><path d="m90.309 171.81c1.464 1.464 3.383 2.197 5.303 2.197s3.839-.732 5.303-2.197c2.929-2.928 2.929-7.677 0-10.606l-21.161-21.161c-2.928-2.928-7.677-2.928-10.606 0s-2.929 7.677 0 10.606z"/><path d="m110.111 154.765c1.145 2.983 3.988 4.814 7.003 4.814.893 0 1.802-.161 2.686-.5 3.867-1.484 5.798-5.822 4.314-9.689l-8.122-21.161c-1.484-3.867-5.822-5.798-9.689-4.314s-5.798 5.822-4.314 9.689z"/><path d="m57.334 186.888 21.161 8.122c.884.339 1.792.5 2.686.5 3.014 0 5.858-1.831 7.003-4.814 1.484-3.867-.447-8.204-4.314-9.689l-21.161-8.122c-3.868-1.485-8.204.448-9.689 4.314-1.484 3.867.447 8.204 4.314 9.689z"/><path d="m411.087 171.81c1.464 1.464 3.384 2.197 5.303 2.197s3.839-.732 5.303-2.197l21.161-21.161c2.929-2.928 2.929-7.677 0-10.606-2.928-2.928-7.677-2.928-10.606 0l-21.161 21.161c-2.929 2.929-2.929 7.678 0 10.606z"/><path d="m392.202 159.079c.884.339 1.792.5 2.686.5 3.014 0 5.858-1.831 7.003-4.814l8.122-21.161c1.484-3.867-.447-8.204-4.314-9.689-3.866-1.483-8.204.447-9.689 4.314l-8.122 21.161c-1.484 3.867.447 8.205 4.314 9.689z"/><path d="m423.818 190.695c1.145 2.983 3.988 4.814 7.003 4.814.893 0 1.802-.161 2.686-.5l21.161-8.122c3.867-1.484 5.798-5.822 4.314-9.689-1.484-3.866-5.822-5.799-9.689-4.314l-21.161 8.122c-3.866 1.485-5.798 5.823-4.314 9.689z"/></g></g></svg>