<svg id="Capa_1" enable-background="new 0 0 512.001 512.001" height="512" viewBox="0 0 512.001 512.001" width="512" xmlns="http://www.w3.org/2000/svg"><g><path d="m394.954 314.865h-4.441l6.712-91.133h24.11c16.954 0 30.697 13.744 30.697 30.697v3.358c0 31.523-25.554 57.078-57.078 57.078z" fill="#f9a58e"/><path d="m117.047 314.865h4.442l-6.712-91.133h-24.111c-16.954 0-30.697 13.744-30.697 30.697v3.358c0 31.523 25.555 57.078 57.078 57.078z" fill="#eaac9d"/><path d="m329.065 447.77v-26.122c-25.614 17.521-53.9 27.554-73.064 27.554s-47.45-10.033-73.064-27.555v26.123c0 14.559-8.35 27.827-21.476 34.125l-30.88 14.817c-3.929 1.885-2.586 7.789 1.772 7.789h247.296c4.358 0 5.701-5.903 1.772-7.789l-30.88-14.817c-13.126-6.298-21.476-19.566-21.476-34.125z" fill="#ffcbbe"/><path d="m399.081 198.513c6.125-83.161-59.694-154.006-143.081-154.006s-149.205 70.845-143.08 154.006l9.755 132.459c5.143 69.834 91.237 118.23 133.326 118.23s128.182-48.396 133.326-118.23c-.001 0 9.755-132.459 9.754-132.459z" fill="#ffcbbe"/><path d="m299.306 51.148c39.235 28.045 63.61 75.29 59.775 127.365 0 0-9.755 132.459-9.755 132.459-5.143 69.834-91.236 118.23-133.326 118.23-8.735 0-19.366-2.085-30.775-6.013 24.997 16.567 52.181 26.013 70.775 26.013 42.089 0 128.182-48.396 133.326-118.23 0 0 9.755-132.459 9.755-132.459 5.014-68.081-38.189-127.907-99.775-147.365z" fill="#eaac9d"/><path d="m346.77 7.501 45.105 78.124-24.209 13.977c-.724.418-1.649.17-2.066-.554l-43.592-75.504c-.418-.724-.17-1.649.554-2.066z" fill="#dd5790"/><path d="m360.123 97.327-96.221-55.554c-1.966-1.135-4.388-1.135-6.355 0 0 0-31.355 18.098-31.355 18.098-7.744 4.471-17.645 1.818-22.116-5.926-4.471-7.744-1.817-17.645 5.926-22.116l33.059-19.087c8.473-4.892 18.912-4.892 27.384 0l22.191 12.812c8.345 4.818 18.627 4.819 26.973.002l2.671-1.538 43.047 74.559s-1.811 1.048-1.812 1.049c-.769-.667-1.612-1.27-2.527-1.798z" fill="#c38959"/><path d="m169.973 124.27 14.394-8.311c7.744-4.471 10.397-14.373 5.926-22.116-4.471-7.744-14.372-10.397-22.116-5.926l-14.394 8.311c-7.744 4.471-10.397 14.373-5.926 22.116 4.471 7.744 14.372 10.397 22.116 5.926z" fill="#c38959"/><path d="m188.668 150.866 8.551-4.937c7.744-4.471 10.397-14.372 5.926-22.116-4.471-7.744-14.372-10.397-22.116-5.926l-8.551 4.937c-7.744 4.471-10.397 14.373-5.926 22.116 4.471 7.744 14.372 10.397 22.116 5.926z" fill="#b17a4a"/><path d="m213.787 173.753 7.717-4.455c7.744-4.471 10.397-14.372 5.926-22.116-4.471-7.744-14.373-10.397-22.116-5.926l-7.717 4.455c-7.744 4.471-10.397 14.372-5.926 22.116 4.47 7.744 14.372 10.397 22.116 5.926z" fill="#c38959"/><path d="m245.586 190.953 4.378-2.527c7.744-4.471 10.397-14.373 5.926-22.116-4.471-7.744-14.373-10.397-22.116-5.926l-4.378 2.527c-7.744 4.471-10.397 14.373-5.926 22.116 4.47 7.744 14.372 10.397 22.116 5.926z" fill="#b17a4a"/><path d="m165.231 7.501-45.105 78.124 24.209 13.977c.724.418 1.649.17 2.066-.554l43.592-75.504c.418-.724.17-1.649-.554-2.066z" fill="#9dc6fb"/><path d="m226.192 59.872c-7.744 4.471-17.645 1.818-22.116-5.926-4.471-7.744-1.817-17.645 5.926-22.116l1.372-.792c-6.492-.162-12.878-1.956-18.559-5.235l-3.095-1.784-43.047 74.559 2.6 1.504c1.218-1.51 2.729-2.825 4.509-3.853l14.078-8.128c7.861-4.538 18.197-1.929 22.586 6.016 4.254 7.702 1.573 17.425-6.08 21.844l-3.339 1.928c7.744-4.471 17.645-1.818 22.116 5.926 4.471 7.744 1.818 17.645-5.926 22.116l.378-.218 7.717-4.455c7.744-4.471 17.645-1.818 22.116 5.926 3.57 6.183 2.597 13.741-1.881 18.813 1.09-1.189 2.377-2.234 3.847-3.084l4.378-2.527c7.744-4.471 17.645-1.818 22.116 5.926 3.647 6.317 2.553 14.07-2.177 19.139l14.96 8.637c7.861 4.538 18.197 1.929 22.586-6.016 4.254-7.702 1.573-17.425-6.08-21.844l15.148 8.746c7.861 4.538 18.197 1.929 22.586-6.016 4.254-7.702 1.573-17.425-6.08-21.844l12.271 7.085c8.174 4.72 18.316 1.673 22.538-6.769l.026-.052c3.743-7.486.875-17.036-6.374-21.221l-.493-.285c7.744 4.471 17.645 1.818 22.116-5.926 3.989-7.979.933-18.156-6.793-22.616l-96.221-55.554c-1.966-1.135-4.388-1.135-6.355 0z" fill="#ffece4"/><path d="m352.408 128.035c-2.593-.076-5.205-.777-7.609-2.165l.493.285c7.249 4.185 10.117 13.734 6.374 21.221l-.026.052c-4.221 8.443-14.363 11.489-22.538 6.769l-12.271-7.085c7.653 4.419 10.334 14.142 6.08 21.844-4.389 7.945-14.725 10.554-22.586 6.016l-15.148-8.746c7.653 4.419 10.334 14.142 6.08 21.844-4.388 7.945-14.725 10.555-22.586 6.016l-14.96-8.637.002-.002c-1.069 1.146-2.323 2.155-3.751 2.979l-4.378 2.527c-7.744 4.471-17.645 1.818-22.116-5.926-3.567-6.177-2.599-13.728 1.869-18.8-1.087 1.184-2.37 2.224-3.836 3.071l-7.717 4.455c-7.744 4.471-17.645 1.818-22.116-5.926-4.471-7.744-1.818-17.645 5.926-22.116l-.378.218-8.551 4.937c-7.744 4.471-17.645 1.818-22.116-5.926-4.471-7.744-1.818-17.645 5.926-22.116l5.119-2.955-7.624 4.401c-2.938 1.696-6.187 2.367-9.332 2.123-10.478 16.101-16.589 34.429-17.868 53.667-.585 8.794 6.4 16.25 15.213 16.25h196.028c8.813 0 15.797-7.456 15.213-16.25-1.232-18.587-6.978-36.324-16.816-52.025z" fill="#86f1a7"/><path d="m369.228 180.06c-1.236-18.587-6.981-36.324-16.819-52.025-2.593-.076-5.205-.777-7.609-2.165l.493.285c7.249 4.185 10.117 13.734 6.374 21.221l-.026.052c-4.221 8.443-14.363 11.489-22.538 6.769l-.449-.259c.246 2.029.437 4.07.574 6.122.584 8.784-6.385 16.234-15.185 16.249-3.421 1.158-7.225 1.204-10.767 0h-10.489c.964 3.841.528 8.037-1.529 11.761-4.388 7.945-14.725 10.555-22.586 6.016l-14.96-8.637.002-.002c-1.069 1.146-2.323 2.155-3.751 2.979l-4.378 2.527c-7.744 4.471-17.645 1.818-22.116-5.926-1.586-2.747-2.275-5.766-2.158-8.718h-78.225c-.124 1.246-.229 2.496-.312 3.75-.585 8.794 6.4 16.25 15.213 16.25h196.028c8.813.001 15.797-7.455 15.213-16.249z" fill="#80e29d"/><g fill="#222221"><path d="m421.335 216.232h-16.038l1.264-17.168c2.571-34.912-6.951-69.283-26.912-97.72l15.976-9.223c3.585-2.069 4.816-6.658 2.745-10.245l-45.105-78.125c-2.071-3.588-6.658-4.815-10.245-2.745l-24.209 13.978c-1.818 1.049-3.184 2.662-3.917 4.599-5.827 2.934-12.819 2.76-18.506-.523l-22.192-12.812c-10.759-6.211-24.126-6.21-34.884 0l-29.752 17.176c-4.339-.39-8.592-1.688-12.439-3.805-.729-1.954-2.102-3.58-3.932-4.636l-24.208-13.977c-3.587-2.071-8.174-.843-10.245 2.745l-45.105 78.124c-2.07 3.585-.842 8.175 2.745 10.245l15.977 9.224c-3.58 5.102-6.849 10.427-9.763 15.908-1.945 3.657-.556 8.198 3.102 10.143 3.657 1.945 8.198.556 10.143-3.102 1.146-2.156 2.354-4.285 3.619-6.383 1.767 5.137 5.26 9.613 10.053 12.537-8.19 15.101-13.072 31.903-14.217 49.115-.871 13.103 9.554 24.247 22.696 24.247h156.252c4.142 0 7.5-3.357 7.5-7.5s-3.358-7.5-7.5-7.5h-15.068c.695-1.799 1.154-3.649 1.388-5.512 14.463 5.101 30.306-4.263 31.74-19.903 8.816 1.926 18.51-1.398 24.181-9.482 2.89 8.527 4.653 17.43 5.265 26.644.296 4.47-3.246 8.253-7.729 8.253h-4.776c-4.142 0-7.5 3.357-7.5 7.5s3.358 7.5 7.5 7.5h4.776c13.133 0 23.568-11.135 22.696-24.248-1.081-16.267-5.516-32.214-12.924-46.667 4.841-2.493 8.832-6.734 10.728-11.61 13.063 23.164 19.07 49.741 17.086 76.677l-9.755 132.459c-4.722 64.115-85.065 110.587-124.965 111.274-39.869.687-121.965-46.616-126.727-111.274-3.334-45.263-7.863-106.769-9.755-132.459-1.056-14.347.124-28.622 3.508-42.43.986-4.022-1.476-8.083-5.499-9.069-4.025-.988-8.083 1.476-9.07 5.499-3.76 15.336-5.071 31.184-3.899 47.102l1.264 17.168h-16.037c-21.062 0-38.197 17.135-38.197 38.197v3.357c0 34.761 27.608 63.196 62.048 64.529l.678 9.207c2.869 38.949 29.22 71.748 60.242 93.99v22.257c0 11.604-6.759 22.344-17.221 27.363l-30.881 14.817c-4.912 2.357-7.499 7.715-6.29 13.027 1.208 5.313 5.858 9.023 11.307 9.023h247.296c5.449 0 10.098-3.711 11.307-9.023 1.209-5.313-1.378-10.67-6.291-13.027l-30.88-14.817c-10.461-5.02-17.22-15.76-17.22-27.363v-22.258c31.022-22.241 57.373-55.04 60.241-93.99l.678-9.207c34.441-1.333 62.048-29.768 62.048-64.529v-3.357c.001-21.06-17.134-38.195-38.196-38.195zm-77.31-198.485 37.605 65.133-12.529 7.233-37.604-65.133zm-97.811 164.184-4.378 2.527c-4.15 2.396-9.475.969-11.871-3.181-1.885-3.265-1.403-7.259.911-9.98 1.418-1.541 1.418-1.399 6.648-4.418 4.168-2.407 9.474-.971 11.871 3.181 2.395 4.149.969 9.475-3.181 11.871zm-24.412-24.405c-.601 2.242-2.039 4.116-4.049 5.277l-7.716 4.455c-4.149 2.396-9.475.969-11.871-3.181-2.396-4.149-.969-9.476 3.181-11.871l7.717-4.455c1.339-.773 2.826-1.168 4.332-1.168 5.759 0 9.877 5.453 8.406 10.943zm-28.334-18.092-8.55 4.937c-4.16 2.4-9.469.98-11.871-3.181-2.398-4.153-.984-9.462 3.173-11.867 5.86-3.383 4.239-2.447 8.558-4.941 4.176-2.411 9.49-.942 11.871 3.181 2.396 4.149.969 9.476-3.181 11.871zm-12.851-29.97c-7.997 4.617-6.24 3.602-14.395 8.311-4.149 2.396-9.475.969-11.871-3.181-2.4-4.156-.98-9.467 3.181-11.871l14.394-8.311c4.176-2.411 9.49-.942 11.871 3.181 2.397 4.15.97 9.476-3.18 11.871zm-12.641-91.717 12.528 7.233c-10.652 18.45-25.261 43.753-37.604 65.133l-12.529-7.232zm-17.719 162.81c.796-11.98 3.663-23.731 8.409-34.685 3.964 9.563 13.413 15.227 23.352 14.631.505 16.373 17.178 27.207 32.287 21.301.501 2.392 1.383 4.746 2.669 6.975.058.1 2.843.032-58.988.032-4.48-.001-8.025-3.78-7.729-8.254zm194.675-36.483c-2.292 4.583-7.641 6.188-12.08 3.628l-12.253-7.074c-.006-.003-.012-.007-.018-.01l-24.134-13.935c-3.588-2.071-8.174-.843-10.245 2.745-2.071 3.587-.842 8.174 2.745 10.245l24.134 13.935c3.995 2.263 5.572 7.546 3.265 11.723-2.381 4.309-8.092 5.559-12.271 3.146-22.993-13.275-1.041-.599-23.818-13.752-3.585-2.069-8.173-.843-10.246 2.744-2.071 3.588-.842 8.175 2.745 10.246.133.077 8.817 5.092 8.687 5.016 6.504 3.774 5.522 13.658-1.943 15.737-2.386.661-4.965.343-7.079-.877l-8.381-4.838c2.434-6.5 2.013-13.838-1.657-20.193-5.41-9.371-16.034-13.425-25.617-11.301-2.007-11.629-12.231-19.949-23.946-19.675-.11-8.983-5.454-17.62-14.341-21.43 2.354-6.381 1.966-13.723-1.692-20.061-6.307-10.923-20.059-14.926-31.182-9.308l26.944-46.669c1.34.629 2.709 1.193 4.1 1.692-3.16 6.775-3.082 14.936.931 21.887 6.51 11.275 21.014 15.221 32.36 8.672l30.784-17.767 13.676 7.896c3.587 2.069 8.174.842 10.245-2.745s.842-8.174-2.745-10.245l-14.25-8.228c-4.272-2.465-9.58-2.465-13.853 0l-31.356 18.099c-4.149 2.395-9.474.969-11.871-3.181-2.396-4.149-.969-9.476 3.181-11.871 71.063-41.026.333-.192 33.06-19.087 6.133-3.54 13.752-3.539 19.884 0l22.192 12.813c9.345 5.395 20.68 6.049 30.504 1.963l26.966 46.707-33.72-19.469c-3.588-2.07-8.175-.843-10.245 2.745-2.071 3.587-.842 8.174 2.745 10.245l51.236 29.581c4.233 2.444 6 8.152 3.932 12.565-2.443 3.993-7.639 5.354-11.744 2.993-.006-.004-.011-.007-.011-.007-3.392-1.982 12.854 7.421-35.913-20.733-3.588-2.07-8.175-.843-10.245 2.745-2.071 3.587-.842 8.174 2.745 10.245l35.875 20.712c.008.005.029.018.037.021l.494.285c3.828 2.211 5.392 7.419 3.389 11.425zm-277.463 113.713v-3.357c0-12.791 10.406-23.197 23.197-23.197h17.143l5.597 76.001c-25.643-1.872-45.937-23.335-45.937-49.447zm254.096 177.487v12.496c0 17.338 10.1 33.387 25.731 40.887l17.391 8.345h-217.372l17.391-8.345c15.631-7.5 25.731-23.549 25.731-40.887v-12.496c22.412 13.126 46.14 21.104 64.446 21.419 22.033.279 47.747-10.33 66.682-21.419zm122.967-177.487c0 26.112-20.293 47.575-45.937 49.446l5.597-76.001h17.143c12.791 0 23.197 10.406 23.197 23.197z"/><path d="m236.029 238.29h-59.765c-4.142 0-7.5 3.357-7.5 7.5s3.358 7.5 7.5 7.5h59.765c4.142 0 7.5-3.357 7.5-7.5s-3.358-7.5-7.5-7.5z"/><path d="m283.472 305.111v-39.35c0-6.877 5.595-12.472 12.472-12.472h39.793c4.142 0 7.5-3.357 7.5-7.5s-3.358-7.5-7.5-7.5h-39.793c-15.148 0-27.472 12.324-27.472 27.472v39.35c0 6.877-5.595 12.472-12.472 12.472-4.142 0-7.5 3.357-7.5 7.5s3.358 7.5 7.5 7.5c15.149-.001 27.472-12.325 27.472-27.472z"/><path d="m210.457 369.427c-3.702-1.856-8.209-.361-10.066 3.342-1.857 3.702-.361 8.209 3.342 10.066l6.277 3.148c28.795 14.444 63.18 14.449 91.982 0l6.277-3.148c3.703-1.857 5.199-6.364 3.342-10.066-1.856-3.703-6.363-5.198-10.066-3.342l-6.278 3.148c-24.586 12.334-53.943 12.334-78.532 0z"/></g></g></svg>