<svg id="Layer_1" enable-background="new 0 0 512 512" height="512" viewBox="0 0 512 512" width="512" xmlns="http://www.w3.org/2000/svg"><g><path d="m283.995 214.141c-.809 5.736-2.742 13.952-4.467 20.627-1.612 6.236-7.225 10.597-13.666 10.597h-19.723c-6.441 0-12.054-4.361-13.666-10.597-1.726-6.676-3.659-14.891-4.467-20.627-.603-4.274-3.17-8.016-6.91-10.17l-18.223-10.495c-3.736-2.152-8.256-2.501-12.254-.889-5.395 2.176-13.527 4.623-20.202 6.474-6.199 1.719-12.774-.953-15.996-6.521l-9.848-17.015c-3.225-5.573-2.252-12.614 2.349-17.119 4.938-4.834 11.113-10.62 15.691-14.188 3.402-2.651 5.363-6.741 5.363-11.055v-20.964c0-4.313-1.961-8.404-5.363-11.055-4.579-3.568-10.754-9.354-15.691-14.188-4.601-4.504-5.574-11.546-2.349-17.119l9.848-17.015c3.222-5.567 9.797-8.239 15.996-6.521 6.675 1.851 14.807 4.298 20.202 6.474 3.999 1.613 8.518 1.263 12.254-.889l18.223-10.495c3.74-2.154 6.308-5.896 6.91-10.17.809-5.736 2.742-13.952 4.467-20.627 1.612-6.233 7.225-10.594 13.666-10.594h19.723c6.441 0 12.054 4.361 13.666 10.597 1.726 6.676 3.659 14.891 4.467 20.627.603 4.274 3.17 8.016 6.91 10.17l18.223 10.495c3.736 2.152 8.256 2.501 12.254.889 5.395-2.176 13.527-4.623 20.202-6.474 6.198-1.719 12.774.954 15.996 6.521l9.848 17.015c3.225 5.573 2.252 12.614-2.349 17.119-4.938 4.834-11.113 10.62-15.691 14.188-3.402 2.651-5.363 6.741-5.363 11.055v20.964c0 4.313 1.961 8.404 5.363 11.055 4.579 3.568 10.754 9.354 15.691 14.188 4.601 4.504 5.574 11.546 2.349 17.119l-9.848 17.015c-3.222 5.567-9.797 8.239-15.996 6.521-6.675-1.851-14.807-4.298-20.202-6.474-3.999-1.613-8.518-1.263-12.254.889l-18.223 10.495c-3.74 2.152-6.308 5.893-6.91 10.167zm20.564-91.458c0-26.752-21.741-48.439-48.559-48.439s-48.559 21.687-48.559 48.439 21.741 48.439 48.559 48.439 48.559-21.687 48.559-48.439z" fill="#f78e36"/><g fill="#f86f1b"><path d="m349.388 144.219c-3.402-2.651-5.363-6.741-5.363-11.055v-20.964c0-4.313 1.961-8.404 5.363-11.055 4.578-3.568 10.754-9.354 15.691-14.188 4.601-4.504 5.574-11.546 2.349-17.119l-9.848-17.015c-3.222-5.567-9.797-8.239-15.996-6.521-5.111 1.417-11.073 3.184-16.009 4.911.396.508.77 1.039 1.1 1.61l9.848 17.015c3.225 5.573 2.252 12.614-2.349 17.119-4.938 4.834-11.113 10.62-15.691 14.188-3.402 2.651-5.363 6.741-5.363 11.055v20.964c0 4.313 1.961 8.403 5.363 11.055 4.578 3.568 10.754 9.354 15.691 14.188 4.601 4.504 5.574 11.546 2.349 17.119l-9.848 17.015c-.33.57-.703 1.102-1.1 1.61 4.937 1.727 10.898 3.494 16.009 4.911 6.199 1.719 12.774-.953 15.996-6.521l9.848-17.015c3.225-5.573 2.252-12.614-2.349-17.119-4.938-4.834-11.113-10.62-15.691-14.188z"/><path d="m248.622 10.597c1.726 6.676 3.658 14.891 4.467 20.627.603 4.274 3.17 8.016 6.91 10.17l18.223 10.495c3.736 2.152 8.256 2.501 12.254.889 3.475-1.401 8.086-2.915 12.711-4.31l-12.283-7.074c-3.74-2.154-6.308-5.896-6.91-10.17-.809-5.736-2.742-13.952-4.467-20.627-1.612-6.236-7.225-10.597-13.666-10.597h-19.722c-1.973 0-3.865.413-5.592 1.159 3.91 1.692 6.956 5.112 8.075 9.438z"/><path d="m290.477 192.588c-3.999-1.613-8.518-1.263-12.254.889l-18.223 10.495c-3.74 2.154-6.308 5.896-6.91 10.17-.809 5.736-2.742 13.952-4.467 20.627-1.118 4.326-4.164 7.746-8.074 9.438 1.726.747 3.619 1.159 5.592 1.159h19.722c6.441 0 12.054-4.361 13.666-10.597 1.726-6.676 3.658-14.891 4.467-20.627.603-4.274 3.17-8.016 6.91-10.17l12.283-7.074c-4.627-1.396-9.237-2.909-12.712-4.31z"/></g><path d="m290.441 260.29v-113.542c0-5.249-4.255-9.505-9.505-9.505h-49.872c-5.249 0-9.505 4.255-9.505 9.505v113.542c0 1.001-.811 1.812-1.812 1.812h-24.771c-1.718 0-2.482 2.159-1.147 3.24l61.023 49.381c.669.541 1.625.541 2.293 0l61.023-49.381c1.336-1.081.571-3.24-1.147-3.24h-24.771c-.998 0-1.809-.811-1.809-1.812z" fill="#7be492"/><g fill="#45d987"><path d="m290.441 260.29v-113.542c0-5.249-4.256-9.505-9.505-9.505h-30.906c5.249 0 9.505 4.256 9.505 9.505v113.542c0 1 .811 1.812 1.812 1.812h30.905c-1 0-1.811-.811-1.811-1.812z"/><path d="m317.023 262.102h-24.771l-51.598 41.131 14.199 11.489c.669.541 1.625.541 2.293 0l61.023-49.381c1.337-1.08.572-3.239-1.146-3.239z"/></g><path d="m398.746 402.77h-285.182l17.702-53.281c2.098-6.294 8.146-10.559 14.966-10.559h220.114c6.819 0 12.867 4.265 14.966 10.559z" fill="#29cef6"/><path d="m381.023 349.489c-2.098-6.294-8.146-10.559-14.966-10.559h-30.857c6.819 0 12.867 4.265 14.966 10.559l17.434 53.281h30.857z" fill="#22b5ed"/><path d="m377.354 512h-242.708c-12.507 0-22.646-10.139-22.646-22.646v-78.329c0-12.507 10.139-22.646 22.646-22.646h242.707c12.507 0 22.646 10.139 22.646 22.646v78.329c.001 12.507-10.138 22.646-22.645 22.646z" fill="#a9dbf5"/><path d="m377.371 388.378h-30.857c12.497 0 22.629 10.147 22.629 22.664v78.294c0 12.517-10.131 22.664-22.629 22.664h30.857c12.498 0 22.629-10.147 22.629-22.664v-78.294c0-12.517-10.131-22.664-22.629-22.664z" fill="#88c3e0"/><path d="m142.857 476.977v-53.576c0-2.274 1.843-4.118 4.117-4.118h218.051c2.274 0 4.117 1.843 4.117 4.118v53.576c0 2.274-1.843 4.118-4.117 4.118h-218.05c-2.274 0-4.118-1.844-4.118-4.118z" fill="#43809f"/><g fill="#f78e36"><path d="m190.164 452.25c-8.521 0-15.429-6.908-15.429-15.429v-17.537h30.857v17.537c.001 8.521-6.907 15.429-15.428 15.429z"/><path d="m241.6 452.25c-8.521 0-15.429-6.908-15.429-15.429v-17.537h30.857v17.537c.001 8.521-6.907 15.429-15.428 15.429z"/></g></g></svg>