<svg height="512" viewBox="0 0 512 512" width="512" xmlns="http://www.w3.org/2000/svg" xmlns:xlink="http://www.w3.org/1999/xlink"><linearGradient id="New_Gradient_Swatch_18" gradientUnits="userSpaceOnUse" x1="50.963" x2="297.037" y1="297.037" y2="50.963"><stop offset=".015" stop-color="#83839e"/><stop offset="1" stop-color="#b8b8c7"/></linearGradient><linearGradient id="New_Gradient_Swatch_11" gradientUnits="userSpaceOnUse" x1="228.089" x2="459.911" y1="459.911" y2="228.089"><stop offset=".011" stop-color="#60c6be"/><stop offset="1" stop-color="#80d1cb"/></linearGradient><linearGradient id="New_Gradient_Swatch_13" gradientUnits="userSpaceOnUse" x1="394.633" x2="457.254" y1="387.604" y2="324.983"><stop offset="0" stop-color="#d46669"/><stop offset="1" stop-color="#dd888a"/></linearGradient><linearGradient id="New_Gradient_Swatch_13-2" x1="230.453" x2="293.66" xlink:href="#New_Gradient_Swatch_13" y1="387.897" y2="324.69"/><g id="_11-call_center_support" data-name="11-call center support"><g id="gradient"><path d="m342.737 134.628-28.826-3.567-10.617-25.63 17.861-22.906a6 6 0 0 0 -.489-7.932l-47.259-47.259a6 6 0 0 0 -7.932-.489l-22.906 17.861-25.63-10.617-3.567-28.826a6 6 0 0 0 -5.955-5.263h-66.834a6 6 0 0 0 -5.955 5.263l-3.567 28.826-25.63 10.617-22.906-17.861a6 6 0 0 0 -7.932.489l-47.259 47.259a6 6 0 0 0 -.489 7.932l17.861 22.906-10.617 25.63-28.826 3.567a6 6 0 0 0 -5.263 5.955v66.834a6 6 0 0 0 5.263 5.955l28.826 3.567 10.617 25.63-17.861 22.906a6 6 0 0 0 .489 7.932l47.259 47.259a6 6 0 0 0 7.932.489l22.906-17.861 25.63 10.617 3.567 28.826a6 6 0 0 0 5.955 5.263h66.834a6 6 0 0 0 5.955-5.263l3.567-28.826 25.63-10.617 22.906 17.861a6 6 0 0 0 7.932-.489l47.259-47.259a6 6 0 0 0 .489-7.932l-17.861-22.906 10.617-25.63 28.826-3.567a6 6 0 0 0 5.263-5.955v-66.834a6 6 0 0 0 -5.263-5.955zm-110.727 97.382a82 82 0 1 1 0-116.02 82.131 82.131 0 0 1 0 116.02z" fill="url(#New_Gradient_Swatch_18)"/><circle cx="344" cy="344" fill="url(#New_Gradient_Swatch_11)" r="164"/><path d="m440 316h-32a12 12 0 0 0 -12 12v56a12 12 0 0 0 12 12h34a18.021 18.021 0 0 0 18-18v-42a20.023 20.023 0 0 0 -20-20z" fill="url(#New_Gradient_Swatch_13)"/><path d="m280 316h-32a20.023 20.023 0 0 0 -20 20v42a18.021 18.021 0 0 0 18 18h34a12 12 0 0 0 12-12v-56a12 12 0 0 0 -12-12z" fill="url(#New_Gradient_Swatch_13-2)"/><path d="m360 436h-56a36.04 36.04 0 0 1 -36-36v-96a76 76 0 0 1 152 0v80a12 12 0 0 1 -24 0v-80a52 52 0 0 0 -104 0v96a12.013 12.013 0 0 0 12 12h56a12 12 0 0 1 0 24z" fill="#ededf1"/></g></g></svg>