<svg height="512pt" viewBox="-26 0 511 512" width="512pt" xmlns="http://www.w3.org/2000/svg"><path d="m447.796875 285.203125h-298.375c-5.917969 0-10.714844-4.796875-10.714844-10.714844v-263.773437c0-5.917969 4.796875-10.714844 10.714844-10.714844h298.375c5.917969 0 10.714844 4.796875 10.714844 10.714844v263.773437c0 5.917969-4.796875 10.714844-10.714844 10.714844zm0 0" fill="#f1eded"/><path d="m458.507812 10.71875v263.773438c0 5.914062-4.789062 10.714843-10.714843 10.714843h-31.070313c5.925782 0 10.714844-4.800781 10.714844-10.714843v-263.773438c0-5.925781-4.789062-10.71484375-10.714844-10.71484375h31.070313c5.925781 0 10.714843 4.78906275 10.714843 10.71484375zm0 0" fill="#dad0cd"/><path d="m458.507812 10.71875v47.6875h-319.796874v-47.6875c0-5.925781 4.785156-10.71484375 10.710937-10.71484375h298.371094c5.925781 0 10.714843 4.78906275 10.714843 10.71484375zm0 0" fill="#27bef4"/><path d="m458.507812 10.71875v47.6875h-31.070312v-47.6875c0-5.925781-4.789062-10.71484375-10.714844-10.71484375h31.070313c5.925781 0 10.714843 4.78906275 10.714843 10.71484375zm0 0" fill="#209ced"/><path d="m256.960938.00390625v58.40234375h-118.25v-47.6875c0-5.925781 4.785156-10.71484375 10.710937-10.71484375zm0 0" fill="#fc6393"/><g fill="#f1eded"><path d="m175.519531 36.929688c-4.269531 0-7.777343-3.460938-7.777343-7.726563 0-4.269531 3.414062-7.726563 7.679687-7.726563h.097656c4.265625 0 7.722657 3.457032 7.722657 7.726563 0 4.265625-3.457032 7.726563-7.722657 7.726563zm0 0"/><path d="m197.488281 36.917969c-4.265625 0-7.773437-3.460938-7.773437-7.726563s3.414062-7.726562 7.679687-7.726562h.09375c4.269531 0 7.726563 3.460937 7.726563 7.726562s-3.457032 7.726563-7.726563 7.726563zm0 0"/><path d="m219.460938 36.90625c-4.265626 0-7.773438-3.460938-7.773438-7.726562 0-4.269532 3.414062-7.726563 7.679688-7.726563h.09375c4.269531 0 7.726562 3.457031 7.726562 7.726563 0 4.265624-3.457031 7.726562-7.726562 7.726562zm0 0"/><path d="m378.691406 398.601562h-298.375c-5.914062 0-10.710937-4.796874-10.710937-10.714843v-263.777344c0-5.914063 4.796875-10.710937 10.710937-10.710937h298.375c5.917969 0 10.714844 4.796874 10.714844 10.710937v263.777344c0 5.917969-4.796875 10.714843-10.714844 10.714843zm0 0"/></g><path d="m389.402344 124.117188v263.773437c0 5.914063-4.789063 10.710937-10.710938 10.710937h-31.074218c5.925781 0 10.714843-4.796874 10.714843-10.710937v-263.773437c0-5.925782-4.789062-10.714844-10.714843-10.714844h31.074218c5.921875 0 10.710938 4.789062 10.710938 10.714844zm0 0" fill="#dad0cd"/><path d="m389.402344 124.117188v47.6875h-319.796875v-47.6875c0-5.925782 4.789062-10.714844 10.714843-10.714844h298.367188c5.925781 0 10.714844 4.789062 10.714844 10.714844zm0 0" fill="#27bef4"/><path d="m389.402344 124.117188v47.6875h-31.070313v-47.6875c0-5.925782-4.789062-10.714844-10.714843-10.714844h31.074218c5.921875 0 10.710938 4.789062 10.710938 10.714844zm0 0" fill="#209ced"/><path d="m187.859375 113.402344v58.402344h-118.253906v-47.691407c0-5.921875 4.789062-10.710937 10.714843-10.710937zm0 0" fill="#00e2c7"/><path d="m106.414062 150.324219c-4.265624 0-7.773437-3.460938-7.773437-7.726563 0-4.269531 3.410156-7.726562 7.679687-7.726562h.09375c4.265626 0 7.726563 3.460937 7.726563 7.726562s-3.457031 7.726563-7.726563 7.726563zm0 0" fill="#f1eded"/><path d="m128.386719 150.3125c-.027344 0-.054688 0-.082031 0-4.265626-.042969-7.734376-3.539062-7.691407-7.808594.042969-4.238281 3.449219-7.644531 7.675781-7.644531h.082032.097656c4.265625.046875 7.6875 3.542969 7.644531 7.808594-.046875 4.238281-3.496093 7.644531-7.726562 7.644531zm0 0" fill="#f1eded"/><path d="m150.359375 150.304688c-.027344 0-.054687 0-.082031 0-4.265625-.046876-7.738282-3.542969-7.691406-7.8125.042968-4.234376 3.449218-7.644532 7.675781-7.644532h.085937l.09375.003906c4.265625.042969 7.6875 3.539063 7.644532 7.804688-.046876 4.242188-3.496094 7.648438-7.726563 7.648438zm0 0" fill="#f1eded"/><path d="m309.589844 511.996094h-298.375c-5.917969 0-10.714844-4.796875-10.714844-10.710938v-263.777344c0-5.917968 4.796875-10.714843 10.714844-10.714843h298.375c5.917968 0 10.714844 4.796875 10.714844 10.714843v263.773438c0 5.917969-4.796876 10.714844-10.714844 10.714844zm0 0" fill="#f1eded"/><path d="m320.300781 237.511719v263.773437c0 5.914063-4.789062 10.714844-10.714843 10.714844h-31.070313c5.925781 0 10.714844-4.800781 10.714844-10.714844v-263.773437c0-5.921875-4.789063-10.710938-10.714844-10.710938h31.070313c5.925781-.003906 10.714843 4.789063 10.714843 10.710938zm0 0" fill="#dad0cd"/><path d="m320.300781 237.511719v47.691406h-319.796875v-47.691406c0-5.921875 4.789063-10.710938 10.714844-10.710938h298.367188c5.925781-.003906 10.714843 4.789063 10.714843 10.710938zm0 0" fill="#27bef4"/><path d="m320.300781 237.511719v47.691406h-31.070312v-47.691406c0-5.921875-4.789063-10.710938-10.714844-10.710938h31.070313c5.925781-.003906 10.714843 4.789063 10.714843 10.710938zm0 0" fill="#209ced"/><path d="m118.753906 226.796875v58.402344h-118.25v-47.6875c0-5.925781 4.789063-10.714844 10.714844-10.714844zm0 0" fill="#197ae5"/><path d="m37.3125 263.722656c-4.269531 0-7.777344-3.460937-7.777344-7.726562 0-4.269532 3.414063-7.726563 7.679688-7.726563h.097656c4.265625 0 7.722656 3.457031 7.722656 7.726563.003906 4.265625-3.457031 7.726562-7.722656 7.726562zm0 0" fill="#f1eded"/><path d="m59.285156 263.710938c-4.269531 0-7.773437-3.460938-7.773437-7.726563 0-4.269531 3.410156-7.726563 7.675781-7.726563h.097656c4.265625 0 7.726563 3.460938 7.726563 7.726563s-3.460938 7.726563-7.726563 7.726563zm0 0" fill="#f1eded"/><path d="m81.257812 263.699219c-4.269531 0-7.777343-3.460938-7.777343-7.726563s3.414062-7.726562 7.679687-7.726562h.097656c4.265626 0 7.722657 3.460937 7.722657 7.726562s-3.457031 7.726563-7.722657 7.726563zm0 0" fill="#f1eded"/><path d="m264.730469 390.84375h-209.453125c-5.691406 0-10.300782-4.609375-10.300782-10.300781v-44.609375c0-5.691406 4.609376-10.304688 10.300782-10.304688h209.453125c5.691406 0 10.304687 4.613282 10.304687 10.304688v44.609375c-.003906 5.6875-4.613281 10.300781-10.304687 10.300781zm0 0" fill="#00e2c7"/><path d="m275.03125 428.679688h-230.054688c-4.269531 0-7.726562-3.457032-7.726562-7.726563 0-4.265625 3.457031-7.726563 7.726562-7.726563h230.054688c4.269531 0 7.726562 3.460938 7.726562 7.726563.003907 4.269531-3.457031 7.726563-7.726562 7.726563zm0 0" fill="#dad0cd"/><path d="m275.03125 451.675781h-230.054688c-4.269531 0-7.726562-3.457031-7.726562-7.726562 0-4.265625 3.457031-7.726563 7.726562-7.726563h230.054688c4.269531 0 7.726562 3.460938 7.726562 7.726563 0 4.269531-3.457031 7.726562-7.726562 7.726562zm0 0" fill="#dad0cd"/><path d="m275.03125 474.671875h-230.054688c-4.269531 0-7.726562-3.460937-7.726562-7.726563 0-4.265624 3.457031-7.726562 7.726562-7.726562h230.054688c4.269531 0 7.726562 3.460938 7.726562 7.726562 0 4.265626-3.457031 7.726563-7.726562 7.726563zm0 0" fill="#dad0cd"/></svg>