<svg id="Flat" height="512" viewBox="0 0 512 512" width="512" xmlns="http://www.w3.org/2000/svg"><g><path d="m126.01 392h259.98a199.554 199.554 0 0 0 70.01-152c0-110.457-89.543-200-200-200s-200 89.543-200 200a199.554 199.554 0 0 0 70.01 152z" fill="#ecf8e2"/><g><path d="m200 296h-64l32-104z" fill="#63c521"/><path d="m264 296h-80l40-128z" fill="#9fdc6e"/></g><path d="m344 168h-64l24-64h16z" fill="#f15a57"/><path d="m216 296h16v32h-16z" fill="#fdc069"/><path d="m160 296h16v32h-16z" fill="#fdc069"/><path d="m440 456v-12a20 20 0 0 0 -20-20h-328a20 20 0 0 0 -20 20v12h-56v16h480v-16z" fill="#f15a57"/><path d="m116 392h280a20 20 0 0 1 20 20v12a0 0 0 0 1 0 0h-320a0 0 0 0 1 0 0v-12a20 20 0 0 1 20-20z" fill="#994635"/><circle cx="312" cy="280" fill="#fafeff" r="64"/><path d="m435.649 328h-359.298a200.723 200.723 0 0 0 49.659 64h259.98a200.723 200.723 0 0 0 49.659-64z" fill="#9fdc6e"/><path d="m292 248h-4l8 16-8 16h16a40 40 0 0 0 40-40v-15.438a63.712 63.712 0 0 0 -32-8.562v12a20 20 0 0 1 -20 20z" fill="#f15a57"/><circle cx="312" cy="96" fill="#fdc069" r="16"/><rect fill="#fdc069" height="64" rx="10" width="144" x="184" y="360"/><g fill="#feffff"><g><path d="m135.955 152.329h16v16h-16z"/><path d="m88 240h16v16h-16z"/><path d="m184 80h16v16h-16z"/><path d="m240 120h16v16h-16z"/><path d="m408 264h16v16h-16z"/><path d="m376 184h16v16h-16z"/></g><circle cx="312" cy="184" r="40"/></g></g></svg>