<svg id="Layer_1" enable-background="new 0 0 512 512" height="512" viewBox="0 0 512 512" width="512" xmlns="http://www.w3.org/2000/svg"><g><path d="m53.443 404.85h405.114c26.78-39.273 42.445-86.732 42.445-137.853 0-135.31-109.691-245.002-245.002-245.002s-245.002 109.691-245.002 245.002c0 51.122 15.665 98.58 42.445 137.853z" fill="#5c45bf"/><path d="m53.443 74.437h405.114v102.553h-405.114z" fill="#ff4155"/><path d="m53.443 176.99h86.374c-.288-.304-.604-.6-.97-.884-14.178-11.019-2.477-24.568-2.477-24.568l2.477-51.649c-10.637-13.325 0-24.568 0-24.568l-.453-.884h-84.951z" fill="#e80054"/><path d="m92.806 449.719c43.33 38.727 100.507 62.281 163.194 62.281s119.864-23.554 163.194-62.281z" fill="#ffb332"/><path d="m53.443 404.85c4.838 7.095 10.044 13.917 15.581 20.451h373.952c5.537-6.534 10.743-13.356 15.581-20.451v-202.519h-405.114z" fill="#73c3f9"/><path d="m119.053 395.319v-163.21c0-16.445 13.331-29.777 29.777-29.777h-95.387v202.518c4.838 7.095 10.044 13.917 15.581 20.451h79.96c-16.768 0-29.931-13.796-29.931-29.982z" fill="#49b1f7"/><path d="m442.976 425.301c3.075-3.628 6.053-7.34 8.916-11.145l-211.825-211.825h-38.393l222.97 222.97z" fill="#b4e6fc"/><path d="m313.777 278.332c.886 0 1.757.115 2.606.316l-76.316-76.316h-38.393l97.411 97.411c-3.786-9.652 3.02-21.411 14.692-21.411z" fill="#9bd8f9"/><path d="m458.557 382.428v-76.787l-103.309-103.31h-76.787z" fill="#9bd8f9"/><path d="m387.496 270.857 71.061 71.061v-36.277l-60.435-60.435c-13.388-.001-20.092 16.185-10.626 25.651z" fill="#b4e6fc"/><path d="m277.962 324.723h-43.925c-30.538 0-55.383 24.845-55.383 55.383v44.272h154.69v-44.272c.001-30.538-24.844-55.383-55.382-55.383z" fill="#6289cc"/><path d="m229.789 349.948c-16.048-9.141-4.582-24.408-4.491-24.529-26.4 4.204-46.643 27.122-46.643 54.687v44.272h72.505c-4.483-30.649-11.884-69.026-21.371-74.43z" fill="#4b6bb2"/><path d="m308.422 424.378h-104.844v-44.272c0-16.822 13.637-30.46 30.459-30.46h43.925c16.822 0 30.459 13.637 30.459 30.46v44.272z" fill="#3c58a0"/><path d="m277.962 349.646h-43.925c-1.442 0-2.859.107-4.248.301 14.81 2.068 26.211 14.778 26.211 30.158v44.272h52.422v-44.272c0-16.821-13.637-30.459-30.46-30.459z" fill="#2a428c"/><path d="m455.589 176.106h-317.741c-7.497 0-13.574 6.077-13.574 13.574 0 7.497 6.077 13.574 13.574 13.574h317.741c7.497 0 13.574-6.077 13.574-13.574.001-7.496-6.077-13.574-13.574-13.574z" fill="#ffdd40"/><path d="m125.274 189.68c0-7.497 6.077-13.574 13.574-13.574h-82.437c-7.497 0-13.574 6.077-13.574 13.574 0 7.497 6.077 13.574 13.574 13.574h82.437c-7.497.001-13.574-6.077-13.574-13.574z" fill="#ffb332"/><path d="m135.516 423.455c-6.115 1.497-10.658 6.998-10.658 13.574 0 6.576 4.543 12.077 10.658 13.574h282.681c9.457-8.361 18.269-17.434 26.34-27.148z" fill="#ffdd40"/><path d="m455.589 48.173h-399.178c-7.497 0-13.574 6.077-13.574 13.574 0 7.497 6.077 13.574 13.574 13.574h399.179c7.497 0 13.574-6.077 13.574-13.574-.001-7.497-6.078-13.574-13.575-13.574z" fill="#d3dcfb"/><path d="m125.274 61.747c0-7.497 6.077-13.574 13.574-13.574h-82.437c-7.497 0-13.574 6.077-13.574 13.574s6.077 13.574 13.574 13.574h82.437c-7.497 0-13.574-6.077-13.574-13.574z" fill="#bec8f7"/><g><path d="m242.209 151.538c-3.824 0-6.923-3.1-6.923-6.923v-37.803c0-3.824 3.099-6.923 6.923-6.923s6.923 3.1 6.923 6.923v37.803c0 3.823-3.099 6.923-6.923 6.923z" fill="#f9a0b1"/></g><g><g><path d="m168.5 151.538c-3.824 0-6.923-3.1-6.923-6.923v-37.803c0-3.824 3.099-6.923 6.923-6.923s6.923 3.1 6.923 6.923v37.803c.001 3.823-3.099 6.923-6.923 6.923z" fill="#f9a0b1"/></g></g><g><path d="m301.405 151.365h-15.783c-3.824 0-6.923-3.1-6.923-6.923v-37.457c0-3.823 3.099-6.923 6.923-6.923h15.783c3.824 0 6.923 3.1 6.923 6.923 0 3.824-3.099 6.923-6.923 6.923h-8.859v23.611h8.859c3.824 0 6.923 3.1 6.923 6.923 0 3.824-3.099 6.923-6.923 6.923z" fill="#f9a0b1"/></g><g><g><path d="m210.338 151.538c-14.24 0-25.825-11.585-25.825-25.825s11.584-25.824 25.825-25.824c5.175 0 10.169 1.527 14.444 4.415 3.168 2.141 4.001 6.444 1.86 9.613s-6.445 4-9.612 1.86c-1.976-1.336-4.29-2.041-6.691-2.041-6.605 0-11.978 5.374-11.978 11.978 0 6.605 5.374 11.978 11.978 11.978 2.371 0 4.258-.654 5.77-2.001.291-.26.572-.549.829-.857 2.456-2.931 6.823-3.316 9.753-.862 2.932 2.455 3.317 6.821.863 9.753-.689.822-1.44 1.597-2.235 2.305-4.049 3.604-9.228 5.508-14.981 5.508z" fill="#f9a0b1"/></g></g><g><g><path d="m374.649 151.538c-7.095 0-13.767-2.872-18.303-7.879-2.567-2.834-2.352-7.211.481-9.779 2.836-2.567 7.213-2.351 9.779.482.708.781 3.379 3.329 8.043 3.329 2.79 0 4.29-1.647 4.441-2.487.115-.64-1.184-1.824-3.553-2.698-5.931-2.187-11.201-4.533-11.422-4.632-.333-.149-.655-.324-.961-.523-4.71-3.071-7.138-8.454-6.335-14.048.848-5.905 5.131-10.706 11.178-12.527 9.146-2.757 17.65 1.609 21.233 4.622 2.927 2.46 3.305 6.827.845 9.755-2.446 2.909-6.775 3.299-9.7.89-.188-.148-4.242-3.257-8.384-2.008-.855.258-1.389.709-1.466 1.237-.02.14-.006.236.024.306 1.635.71 5.576 2.388 9.779 3.938 6.764 2.495 14.069 8.738 12.393 18.123-1.439 8.054-9.038 13.899-18.072 13.899z" fill="#f9a0b1"/></g></g><g><path d="m136.371 151.538c-3.824 0-6.923-3.1-6.923-6.923v-36.595c0-3.824 3.099-6.923 6.923-6.923s6.923 3.1 6.923 6.923v36.596c0 3.822-3.099 6.922-6.923 6.922z" fill="#f9a0b1"/></g><g><path d="m333.033 151.538c-3.824 0-6.923-3.1-6.923-6.923v-36.595c0-3.824 3.099-6.923 6.923-6.923s6.923 3.1 6.923 6.923v36.596c0 3.822-3.099 6.922-6.923 6.922z" fill="#f9a0b1"/></g><g><g><path d="m421.323 133.24h-10.02c-3.824 0-6.923-3.1-6.923-6.923s3.099-6.923 6.923-6.923h10.02c3.824 0 6.923 3.1 6.923 6.923 0 3.824-3.099 6.923-6.923 6.923z" fill="#ff7186"/></g><g><path d="m100.696 133.24h-10.02c-3.824 0-6.923-3.1-6.923-6.923s3.099-6.923 6.923-6.923h10.02c3.824 0 6.923 3.1 6.923 6.923.001 3.824-3.099 6.923-6.923 6.923z" fill="#ff7186"/></g></g><g><path d="m263.885 151.538c-1.73 0-3.462-.645-4.806-1.941l-20.467-19.746c-1.374-1.325-2.139-3.158-2.116-5.066s.832-3.722 2.237-5.013l19.125-17.58c2.815-2.588 7.194-2.403 9.782.411 2.588 2.815 2.403 7.195-.412 9.782l-13.713 12.605 15.177 14.642c2.752 2.655 2.831 7.038.176 9.789-1.358 1.409-3.169 2.117-4.983 2.117z" fill="#f9a0b1"/></g><g><path d="m300.241 132.637h-14.619c-3.824 0-6.923-3.1-6.923-6.923s3.099-6.923 6.923-6.923h14.619c3.824 0 6.923 3.1 6.923 6.923s-3.099 6.923-6.923 6.923z" fill="#f9a0b1"/></g><g><path d="m146.852 113.735h-20.877c-3.824 0-6.923-3.1-6.923-6.923s3.099-6.923 6.923-6.923h20.877c3.824 0 6.923 3.1 6.923 6.923s-3.099 6.923-6.923 6.923z" fill="#f9a0b1"/></g><g><path d="m343.514 113.735h-20.878c-3.824 0-6.923-3.1-6.923-6.923s3.099-6.923 6.923-6.923h20.878c3.824 0 6.923 3.1 6.923 6.923s-3.099 6.923-6.923 6.923z" fill="#f9a0b1"/></g><path d="m481.462 39.899-15.278-33.89c-1.68-3.727-4.714-6.009-7.988-6.009h-404.392c-3.274 0-6.308 2.282-7.988 6.009l-15.278 33.89c-1.945 4.314 1.21 9.197 5.942 9.197h439.04c4.732 0 7.887-4.883 5.942-9.197z" fill="#e9efff"/><path d="m130.031 39.899 15.278-33.89c1.68-3.727 4.714-6.009 7.988-6.009h-99.493c-3.274 0-6.308 2.282-7.988 6.009l-15.278 33.89c-1.945 4.314 1.21 9.197 5.942 9.197h99.494c-4.732 0-7.887-4.883-5.943-9.197z" fill="#d3dcfb"/><path d="m125.274 437.029c0-7.497 6.077-13.574 13.574-13.574h-71.385c8.07 9.714 16.882 18.787 26.34 27.148h45.045c-7.497 0-13.574-6.077-13.574-13.574z" fill="#ffb332"/></g></svg>